<svg id="Layer_1" data-name="Layer 1" xmlns="http://www.w3.org/2000/svg" viewBox="0 0 161.22 141.37"><defs><style>.cls-1{fill:#00b25b;}.cls-2{fill:#2555a6;}.cls-3{fill:#ffd900;}.cls-4{fill:#ba63a7;opacity:0.13;}.cls-5{fill:#f8a01c;}</style></defs><path class="cls-1" d="M279.82,280.53l-5.73,18.34-1-.91c0-.38,0-.69,0-.92a6.44,6.44,0,0,0-2-4.16q-6.27-7.08-14.7-7.08a14,14,0,0,0-6.57,1.48,8.51,8.51,0,0,0-3.36,3.42,9.91,9.91,0,0,0-1.28,5q0,4.39,3.27,6a33.42,33.42,0,0,0,7.24,1.71l5.52.91a30.23,30.23,0,0,1,8,2.34,17.25,17.25,0,0,1,5.4,4.16,20.47,20.47,0,0,1,3.78,7.36,33.5,33.5,0,0,1,1.38,9.75,31.58,31.58,0,0,1-3.27,14.6,18.3,18.3,0,0,1-9.17,8.61,23.69,23.69,0,0,1-9.95,2.11q-9.53,0-18.81-7.42a8.1,8.1,0,0,0-2.35-1.48c-.31,0-.79.42-1.45,1.26l-1-.86,5.21-19.12,1,.8v.74a8.12,8.12,0,0,0,1.51,4.74,18.25,18.25,0,0,0,7.07,5.71,20.35,20.35,0,0,0,9.07,2.39,12.65,12.65,0,0,0,8-2.56,10,10,0,0,0,2.91-3.79,11.58,11.58,0,0,0,1.09-4.93q0-3.87-2.56-5.52-1.8-1.14-7.24-2.11l-5.42-.91a48.63,48.63,0,0,1-7.7-1.74,15.86,15.86,0,0,1-4.5-2.66,16.82,16.82,0,0,1-5-7.71,31.54,31.54,0,0,1-1.65-10.62q0-9.89,4.19-16.34,5.48-8.51,16.45-8.51a23.89,23.89,0,0,1,8.58,1.52,50.31,50.31,0,0,1,9.91,5.59,8,8,0,0,0,2.5,1.31c.49,0,1.06-.43,1.72-1.31Z" transform="translate(-221.99 -243.97)"/><path class="cls-2" d="M292.55,350.84v25.44a5.55,5.55,0,0,0,.51,2.63,3.34,3.34,0,0,0,1.74,1.44v1.81h-15v-1.81a3.46,3.46,0,0,0,1.76-1.47,5.51,5.51,0,0,0,.49-2.6V310.93a5.7,5.7,0,0,0-.49-2.66,3.56,3.56,0,0,0-1.76-1.47V305h30a24.84,24.84,0,0,1,8.31,1.13,13.08,13.08,0,0,1,5.43,3.9,20.57,20.57,0,0,1,3.8,7.58,37.5,37.5,0,0,1,1.37,10.29,33.46,33.46,0,0,1-2.6,13.68,14.84,14.84,0,0,1-6,7.15q-3.7,2.11-10.35,2.12Zm0-12.72h16c3.19,0,5.42-.54,6.71-1.64a7.41,7.41,0,0,0,2-3.42,18,18,0,0,0,0-10.29,7.51,7.51,0,0,0-2-3.42q-1.89-1.64-6.71-1.64h-16Z" transform="translate(-221.99 -243.97)"/><path class="cls-1" d="M372.23,280.53l-5.42,18.34-.93-.91c0-.38,0-.69,0-.92a6.6,6.6,0,0,0-1.93-4.16q-5.91-7.08-13.88-7.08a12.62,12.62,0,0,0-6.21,1.48,8.36,8.36,0,0,0-3.17,3.42,10.4,10.4,0,0,0-1.21,5q0,4.39,3.09,6a30.26,30.26,0,0,0,6.84,1.71l5.21.91a27.29,27.29,0,0,1,7.52,2.34,16.49,16.49,0,0,1,5.1,4.16,21,21,0,0,1,3.57,7.36,35.29,35.29,0,0,1,1.31,9.75,33.11,33.11,0,0,1-3.09,14.6,17.79,17.79,0,0,1-8.67,8.61A21.31,21.31,0,0,1,351,353.2q-9,0-17.77-7.42A7.56,7.56,0,0,0,331,344.3c-.29,0-.74.42-1.36,1.26l-1-.86,4.92-19.12,1,.8v.74a8.48,8.48,0,0,0,1.43,4.74,17.51,17.51,0,0,0,6.67,5.71,18.42,18.42,0,0,0,8.57,2.39,11.5,11.5,0,0,0,7.54-2.56,9.87,9.87,0,0,0,2.75-3.79,12.14,12.14,0,0,0,1-4.93q0-3.87-2.42-5.52-1.69-1.14-6.84-2.11l-5.12-.91a43.79,43.79,0,0,1-7.27-1.74,15,15,0,0,1-4.25-2.66,16.92,16.92,0,0,1-4.75-7.71,33.2,33.2,0,0,1-1.56-10.62q0-9.89,3.95-16.34,5.19-8.51,15.54-8.51a21.47,21.47,0,0,1,8.11,1.52,46.91,46.91,0,0,1,9.36,5.59,7.39,7.39,0,0,0,2.36,1.31c.46,0,1-.43,1.63-1.31Z" transform="translate(-221.99 -243.97)"/><path class="cls-3" d="M326.14,284c-5.86,1.91-6.26,3.73-1.59,7.6-6.11-.56-7.16.94-4.31,6.2-5.43-2.76-7-1.74-6.4,4.19-4-4.53-5.87-4.14-7.84,1.53-2-5.67-3.85-6.06-7.84-1.53.57-5.93-1-6.95-6.4-4.19,2.85-5.26,1.8-6.76-4.31-6.2,4.67-3.87,4.27-5.69-1.59-7.6,5.86-1.92,6.26-3.74,1.59-7.6,6.11.55,7.16-.95,4.31-6.21,5.43,2.76,7,1.74,6.4-4.19,4,4.53,5.87,4.14,7.84-1.53,2,5.67,3.85,6.06,7.84,1.53-.57,5.93,1,7,6.4,4.19-2.85,5.26-1.8,6.76,4.31,6.21C319.88,280.28,320.28,282.1,326.14,284Z" transform="translate(-221.99 -243.97)"/><ellipse class="cls-4" cx="80.61" cy="70.68" rx="80.61" ry="70.68"/><circle class="cls-5" cx="84.01" cy="40.05" r="11.46"/><polygon class="cls-5" points="17.42 109.23 53.38 109.23 129.69 109.23 141.89 114.14 63.85 115.23 17.42 115.23 17.42 109.23"/></svg>